<svg id="Layer_1" data-name="Layer 1" xmlns="http://www.w3.org/2000/svg" viewBox="0 0 1000 1000"><defs><style>.cls-1{fill:#704040;}.cls-2{fill:#fdce0f;}.cls-3{fill:#fcfcfc;}</style></defs><ellipse class="cls-1" cx="494.3" cy="504.15" rx="138.34" ry="119.33"/><path class="cls-2" d="M318.38,553.92q-2.4-8-4.79-15.93a199.43,199.43,0,0,1-1.87-82.7L315.65,438c9.08-26.23,22.17-50.13,40.31-71.13L369.83,353c8.75-6.42,17-13.81,26.38-19,14.62-8.13,30.05-14.79,45.14-22.08l16.23-3.92c26.82-3.75,53.61-5.33,80.33.78L554.49,313c3.24,1.31,6.44,2.72,9.71,3.92,22.49,8.23,41.78,21.82,60.41,36.55l14.22,14.24c17,21.22,30.36,44.49,39.14,70.36l4,18.13c5,27.18,3.83,54.23-1.55,81.21q-2.5,8.4-5,16.81C668,568.47,661.25,583.14,653,596.9c-5.71,9.52-13.5,17.77-20.37,26.58L619.55,635.2c-20.08,16.37-42.49,28.51-66.71,37.34l-16.26,3.77a222.39,222.39,0,0,1-75.51,1.26l-15.2-3.44c-24.79-9.16-48.71-20-69.35-37L362.61,624C342.74,603.91,328.79,580.05,318.38,553.92Zm180.09,10.6c29.42.27,57-24.21,58.53-51.89.27-4.78-.09-9.26-5.77-10.12s-7.76,2.29-9.54,7.67c-2.72,8.21-5.75,17-11.09,23.51-11.49,14-27.25,17.82-44.51,13.27-18.13-4.78-28.57-17.53-32.85-35.5-1.39-5.85-3.53-10.36-10.14-8.95-6.45,1.37-6.08,6.82-5.29,12C442.21,543.19,467.73,564.23,498.47,564.52Zm-59-106.45c.21-13.45-10.79-25-24.09-25.29-13.6-.29-25.25,11.19-25.34,25-.08,13,10.76,23.76,24.21,24.11C428.14,482.19,439.3,471.67,439.51,458.07ZM555.27,458c0,13.42,10.88,23.81,25,23.93A24,24,0,0,0,604.45,458c.13-13.82-11.44-25.47-25-25.17C566.19,433.09,555.25,444.47,555.27,458Z"/><path class="cls-3" d="M632.63,623.48c6.87-8.81,14.66-17.06,20.37-26.58,8.25-13.76,15-28.43,22.39-42.71,19.83,5.07,39.73,9.9,59.49,15.28,52.57,14.32,104.41,30.57,150.35,61.47,19.6,13.18,36.47,28.92,47.4,50.39,14.66,28.78,12.75,56.81-7.42,81.54-13.72,16.84-33.41,24.83-55.39,25.8-27.26,1.21-51.88-7.71-75.63-20a350.42,350.42,0,0,1-90-66.92c-23.55-24.09-45.32-49.95-67.9-75A45.43,45.43,0,0,0,632.63,623.48Z"/><path class="cls-3" d="M552.84,672.54c24.22-8.83,46.63-21,66.71-37.34,3.84,4.23,7.47,8.67,11.55,12.65,27.08,26.43,55.28,51.78,81.13,79.38C742,759,767,794.6,781,836.82c6.35,19.21,7.82,38.75,2.71,58.45-7.36,28.42-30,47.32-62.08,49.84-22.19,1.74-42-6.65-59.72-20-21.53-16.17-36.52-38-49-61.24C583,807.79,565.47,747.33,554.34,684.84,553.61,680.78,553.33,676.65,552.84,672.54Z"/><path class="cls-3" d="M376.52,637.09c20.64,17.07,44.56,27.88,69.35,37-4.35,22.73-8.49,45.5-13.1,68.18-7.59,37.36-17.26,74.14-32.47,109.17-10.61,24.41-24,47.1-43.19,65.83-22.53,22-48.57,33.63-80.44,26.5-33.28-7.44-54.5-33.95-56.27-68.42-1.61-31.41,9.57-58.93,23.94-85.64,22.19-41.26,53.41-75.18,86.28-107.73C345.83,667,361.21,652.06,376.52,637.09Z"/><path class="cls-3" d="M680.41,537.38c5.38-27,6.53-54,1.55-81.21,30.71-7.84,61.26-16.47,92.18-23.31,42.85-9.48,86.29-14.27,130.24-10.73,28.16,2.27,54.11,10.28,74.82,31.2,29.52,29.84,27.33,78.05-4.72,105.72-20.33,17.56-44.51,24.06-70.37,25.72-53.52,3.44-104.86-8.09-155.41-24.12C725.78,553.39,703.17,545.17,680.41,537.38Z"/><path class="cls-3" d="M318.38,553.92c10.41,26.13,24.36,50,44.23,70-41.23,55.47-88.73,104.19-148.92,138.8-25.06,14.41-51.95,23.78-81.38,20.92-24.62-2.39-46.59-11.33-58.93-34.51-7.66-14.41-12.5-29.85-8.83-47.38,5.37-25.7,19.31-45.61,38-62.56,26.4-24,58.38-38,91.32-50.2A768,768,0,0,1,309.75,556.4C312.67,555.81,315.5,554.75,318.38,553.92Z"/><path class="cls-3" d="M461.07,677.57a222.39,222.39,0,0,0,75.51-1.26c9.06,30.93,19.11,61.61,26.89,92.87,8.1,32.56,15.88,65.42,20.36,98.61,4.56,33.77.47,67.08-18.27,97.21-20.72,33.32-61.49,42.71-94.75,25-27.67-14.75-39.51-40.5-44.75-69.8-11.15-62.4,3.28-122.25,18.94-181.89C450.31,718,455.71,697.81,461.07,677.57Z"/><path class="cls-3" d="M311.72,455.29a199.43,199.43,0,0,0,1.87,82.7c-27.55,8.88-54.88,18.54-82.7,26.47-44.81,12.79-90.25,21.95-137.3,18.81-26-1.73-49.58-10.11-70.21-26.11C11.2,547.72,4.29,533.77,1.55,519.42c-4.85-25.43,1.53-48.67,21-67.1C43.2,432.7,68.69,424.78,96.1,422c46.23-4.68,91.58,2.14,136.46,12.3C259.16,440.34,285.35,448.23,311.72,455.29Z"/><path class="cls-3" d="M624.61,353.44c-18.63-14.73-37.92-28.32-60.41-36.55-3.27-1.2-6.47-2.61-9.71-3.92,11.71-41,22-82.5,35.55-122.91a250.63,250.63,0,0,1,52.24-89.9c18.42-20.26,40.3-35,68-36.71,38.73-2.31,72.46,19.66,76.57,66.47,2.91,33.15-9.79,62.11-26.72,89.37-23.19,37.34-54.14,67.68-87.2,95.87C657.26,328.48,640.73,340.71,624.61,353.44Z"/><path class="cls-3" d="M678,438c-8.78-25.87-22.16-49.14-39.14-70.36,3.26-2.81,6.85-5.31,9.75-8.46C686.79,317.56,727.57,279,777,251c29.71-16.84,61.09-28,96-26.18,26.41,1.35,56.89,17.75,66.24,49.18,8.9,29.91-.59,55.15-19.71,77.69-23,27.13-53.78,41.64-86.34,52.93C782.77,422.06,730.55,430.91,678,438Z"/><path class="cls-3" d="M537.91,308.69c-26.72-6.11-53.51-4.53-80.33-.78-10.84-37-23.37-73.54-32.05-111-9.22-39.83-12.79-80.59-4.55-121.42,4.45-22.11,12.87-42.54,29.63-57.83,16-14.57,35.74-19.62,57.08-17,24.33,3,41.79,16.88,54,37.56,12.58,21.35,17.05,45.12,18.34,69.64,2.49,47-7,92.18-20.45,136.68C553,266.15,545.17,287.33,537.91,308.69Z"/><path class="cls-3" d="M356,366.88c-18.14,21-31.23,44.9-40.31,71.13-12.88-2.3-25.75-4.67-38.65-6.88-42.87-7.34-85.32-16.32-125.82-32.85-26.46-10.81-51.12-24.72-70.54-46.31-22.17-24.65-30.92-52.92-19.59-85.46,9.5-27.31,35.46-41.46,63.76-43,36.41-2,68.26,11.69,99,29.44,50.26,29,91.27,68.81,129.85,111.56C354.44,365.31,355.21,366.09,356,366.88Z"/><path class="cls-3" d="M441.35,311.83c-15.09,7.29-30.52,13.95-45.14,22.08-9.4,5.24-17.63,12.63-26.38,19-14.86-12.08-30-23.86-44.53-36.3-36.66-31.34-70.24-65.51-94.18-108.15-12-21.35-19.78-43.93-20.85-68.81-2.39-55.67,48.41-92.17,102.47-67,15.33,7.13,28.41,17.43,39.75,30,30.66,34,49.54,74.66,63.59,117.58C425.93,250.29,433,281.26,441.35,311.83Z"/></svg>